<?xml version="1.0" encoding="utf-8"?>
<svg viewBox="198 201 111 76" xmlns="http://www.w3.org/2000/svg">
  <defs>
    <pattern id="pattern-0" x="0" y="0" width="20" height="20" patternUnits="userSpaceOnUse" viewBox="0 0 100 100">
      <path d="M 0 0 L 50 0 L 50 100 L 0 100 Z" style="fill: black;"/>
    </pattern>
  </defs>
  <ellipse cx="253.543" cy="238.563" rx="51.143" ry="37.934" style="fill: rgb(148, 85, 62);"/>
  <ellipse transform="matrix(0.999996, 0, 0, 1, -287.916373, -2.375748)" cx="544.276" cy="250.295" rx="8.467" ry="7.113" style="fill: rgb(240, 98, 146);"/>
  <path d="M 258.468 242.707 C 262.239 246.295 263.698 249.153 258.468 253.471" style="fill: rgb(236, 64, 122); stroke: rgb(236, 64, 121);"/>
  <path d="M 254.759 243.345 C 244.665 246.751 253.786 251.251 254.577 253.197" style="fill: rgb(236, 64, 122); stroke: rgb(236, 64, 121);"/>
  <path d="M 261.935 243.254 C 261.935 243.254 267.955 235.956 266.861 229.024" style="stroke: rgb(240, 98, 145); fill: none;"/>
  <path d="M 250.806 242.707 C 250.705 242.673 246.145 240.112 246.062 229.39" style="fill: none; stroke: rgb(240, 98, 145);"/>
  <path d="M 245.697 229.023 L 266.861 229.206" style="stroke: rgb(240, 98, 145); fill: rgb(240, 98, 145);"/>
  <path d="M 322.322 250.917 Z" style="fill: none; stroke: rgb(240, 98, 145);"/>
  <path d="M 246.427 229.571 C 250.076 229.571 253.177 229.571 256.279 229.571 C 257.102 229.571 259.112 229.303 259.563 229.753 C 259.759 229.95 262.847 230.301 262.847 230.301 C 263.051 230.301 264.671 230.301 264.671 230.301 C 264.671 230.301 266.861 230.301 266.861 230.301 C 265.948 232.5 265.401 233.529 265.401 234.314 C 265.401 235.749 265.71 238.202 264.854 239.058 C 264.492 239.42 264.2 239.712 263.759 240.153 C 263.675 240.237 262.664 240.335 262.664 240.335 C 262.664 240.84 260.983 240.7 260.475 240.7 C 257.919 240.7 255.737 240.882 253.36 240.882 C 252.955 240.882 250.806 241.065 250.806 241.065 C 250.258 241.065 249.65 240.578 249.529 240.335 C 249.09 239.458 248.799 237.863 248.799 236.869 C 248.799 236.686 248.631 235.789 248.616 235.774 C 247.677 234.834 246.61 234.913 246.61 233.037 C 246.61 232.855 246.61 229.936 246.61 229.936 C 246.61 229.936 246.61 229.753 246.61 229.753 Z" style="stroke: rgb(240, 98, 145); fill: rgb(240, 98, 145);"/>
  <path d="M 247.887 236.321 Z" style="stroke: black; fill: none;"/>
  <path d="M 248.434 239.058 C 248.434 238.875 247.933 236.686 247.339 236.686 C 247.339 236.686 247.339 235.774 247.339 235.774 C 247.522 235.409 247.522 235.287 247.522 235.227" style="fill: none; stroke: rgb(240, 98, 145);"/>
  <path d="M 248.799 236.321 Z" style="stroke: black; fill: none;"/>
  <path d="M 247.887 235.956 C 248.81 237.062 249.164 237.887 249.164 238.511 C 249.164 238.875 248.799 239.605 249.164 239.605 C 250.069 239.605 251.718 240.882 251.718 240.882 C 251.718 241.065 251.718 241.775 251.718 241.795 C 251.718 241.795 250.623 241.977 250.623 241.977 C 249.711 241.402 249.346 240.517 249.346 240.517 C 249.529 240.517 250.311 240.57 250.441 240.7 C 250.441 240.7 250.623 240.976 250.623 241.247 C 250.623 240.016 250.623 236.869 250.623 236.869 C 252.569 236.869 254.515 236.869 256.461 236.869 C 256.909 236.869 258.401 236.653 258.833 236.869 C 259.483 237.194 259.49 238.548 259.745 239.058 C 259.823 239.214 260.84 240.517 260.84 240.517 C 260.84 240.517 261.752 240.86 261.752 240.882 C 261.691 241.247 261.622 241.611 261.57 241.977 C 261.563 242.022 260.852 242.353 260.658 242.159 C 260.387 241.889 260.84 240.517 260.84 240.517 C 261.022 240.517 262.299 240.092 262.299 240.517 C 262.299 240.592 262.299 241.43 262.299 241.43 C 261.709 241.43 259.745 241.43 259.745 241.43 C 260.049 241.43 260.658 241.43 260.658 241.43" style="fill: none; stroke: rgb(240, 98, 145);"/>
  <path d="M 256.644 235.592 Z" style="stroke: black; fill: none;"/>
  <path d="M 261.205 229.936 C 262.617 229.8 263.941 229.753 263.941 229.753 C 264.124 229.753 265.766 229.753 265.766 229.753 C 265.948 229.753 266.861 229.753 266.861 229.753 C 266.861 230.666 266.861 231.395 266.861 232.125 C 266.861 232.49 267.225 233.22 266.861 233.22 C 266.595 233.22 265.948 233.767 265.948 233.767 C 265.948 234.152 265.948 235.044 265.948 235.044 C 265.948 235.774 266.063 237.051 265.583 237.051 C 265.347 237.051 264.109 238.526 263.941 238.693 C 263.698 238.936 264.185 239.909 263.941 240.153 C 263.666 240.428 263.212 241.612 263.212 241.612 C 263.212 241.612 262.117 242.524 262.117 242.524 C 261.205 241.643 259.38 241.43 259.38 241.43 C 258.144 241.43 257.025 240.882 255.549 240.882 C 254.88 240.882 253.542 240.213 253.542 240.882 C 253.542 241.263 251.535 242.342 251.535 242.342 C 251.535 242.342 251.535 241.247 251.535 241.247 C 251.535 241.247 251.718 239.899 251.718 239.605 L 251.718 239.605" style="fill: none; stroke: rgb(240, 98, 145);"/>
</svg>